<?xml version="1.0" standalone="no"?>
<!DOCTYPE svg PUBLIC "-//W3C//DTD SVG 20010904//EN"
 "http://www.w3.org/TR/2001/REC-SVG-20010904/DTD/svg10.dtd">
<svg version="1.0" xmlns="http://www.w3.org/2000/svg"
 width="500.000000pt" height="500.000000pt" viewBox="0 0 500.000000 500.000000"
 preserveAspectRatio="xMidYMid meet">
<metadata>
Created by potrace 1.11, written by Peter Selinger 2001-2013
</metadata>
<g transform="translate(0.000000,500.000000) scale(0.100000,-0.100000)"
fill="#000000" stroke="none">
<path d="M2339 4986 c-2 -2 -45 -6 -94 -10 -76 -5 -221 -26 -350 -51 -41 -8
-209 -53 -265 -72 -432 -142 -783 -352 -1108 -666 -68 -66 -84 -91 -63 -99 5
-1 59 -51 120 -110 60 -59 114 -109 120 -110 5 -2 49 33 97 77 251 230 478
376 799 510 22 9 47 18 55 20 8 2 42 13 75 25 277 97 655 142 975 116 52 -5
102 -9 110 -11 8 -1 35 -6 60 -10 25 -3 57 -9 73 -11 441 -70 936 -323 1278
-654 85 -82 63 -87 194 42 64 62 121 115 126 116 21 8 6 32 -58 95 -308 300
-681 527 -1088 661 -157 52 -301 88 -410 102 -22 3 -46 7 -53 9 -7 3 -40 7
-75 11 -34 3 -73 8 -87 10 -29 6 -426 15 -431 10z"/>
<path d="M2358 4125 c-2 -2 -34 -6 -73 -9 -307 -28 -655 -153 -925 -332 -91
-60 -248 -184 -292 -231 l-28 -29 145 -144 144 -144 63 56 c68 59 190 150 251
187 148 90 401 187 542 208 17 2 36 6 44 9 69 23 421 24 536 1 11 -3 38 -8 60
-12 22 -5 45 -10 50 -11 6 -2 22 -5 36 -8 87 -19 252 -83 369 -145 124 -65
218 -132 345 -245 22 -19 43 -36 46 -36 3 0 70 63 149 140 166 163 165 133 12
261 -317 264 -702 429 -1107 475 -61 6 -362 14 -367 9z"/>
<path d="M2468 3325 c-2 -1 -38 -5 -81 -9 -249 -21 -515 -141 -696 -315 l-64
-61 126 -125 c69 -69 128 -125 132 -125 4 0 34 25 68 55 109 99 285 185 416
203 60 8 193 8 257 0 134 -16 315 -104 423 -203 32 -30 62 -55 66 -55 3 0 64
56 133 125 l127 126 -55 51 c-200 185 -450 301 -695 322 -142 13 -154 14 -157
11z"/>
<path d="M4152 2931 c-79 -80 -145 -149 -148 -152 -2 -3 9 -36 25 -72 48 -108
104 -295 117 -395 2 -20 8 -66 13 -101 11 -83 6 -307 -8 -396 -7 -38 -21 -108
-32 -155 -58 -248 -203 -524 -380 -720 l-55 -61 -458 457 c-434 435 -457 459
-438 473 32 27 88 104 109 151 56 125 43 290 -32 410 -32 51 -115 124 -172
153 -126 64 -291 57 -418 -18 -89 -52 -183 -181 -201 -276 -27 -141 20 -297
120 -401 l35 -37 -455 -455 -456 -455 -22 22 c-93 90 -215 265 -289 412 -70
141 -136 343 -152 472 -3 21 -9 67 -14 102 -4 35 -7 123 -6 195 3 112 11 181
40 339 10 49 56 187 91 270 32 77 33 82 16 101 -45 51 -275 276 -283 276 -31
0 -196 -409 -223 -554 -30 -156 -37 -205 -44 -284 -24 -278 10 -564 97 -831
88 -267 227 -507 424 -732 37 -42 67 -79 67 -82 0 -3 -63 -69 -141 -146 -93
-93 -138 -145 -133 -153 4 -7 66 -72 138 -145 l131 -131 743 741 742 742 743
-742 742 -742 131 132 c72 73 134 138 138 145 5 9 -37 58 -133 154 -78 77
-141 143 -141 147 0 3 21 29 46 56 137 150 259 331 345 510 67 140 138 344
155 445 3 14 7 31 9 38 2 7 7 34 11 60 3 26 8 50 10 54 15 25 23 429 10 517
-3 20 -10 68 -15 107 -13 88 -61 275 -96 374 -32 88 -138 315 -151 322 -5 2
-73 -61 -152 -141z"/>
</g>
</svg>
